<svg xmlns="http://www.w3.org/2000/svg" width="50.891" height="50" viewBox="0 0 50.891 50">
  <g id="Grupo_1001" data-name="Grupo 1001" transform="translate(-225.529)">
    <g id="Grupo_996" data-name="Grupo 996" transform="translate(225.529 0)">
      <path id="Trazado_728" data-name="Trazado 728" d="M303.26,508.668q-6.179,1-12.4,1.846Q297.079,509.67,303.26,508.668Zm0,0" transform="translate(-252.369 -465.077)" fill="#4a3288"/>
      <path id="Trazado_729" data-name="Trazado 729" d="M305.248,507.793c-1.968.361-3.939.691-5.907,1.028C301.307,508.483,303.278,508.154,305.248,507.793Zm0,0" transform="translate(-256.516 -465.883)" fill="#4a3288"/>
      <path id="Trazado_730" data-name="Trazado 730" d="M292.148,510.34q-7.232.811-14.538,1.426Q284.909,511.159,292.148,510.34Zm0,0" transform="translate(-241.302 -463.537)" fill="#4a3288"/>
      <path id="Trazado_731" data-name="Trazado 731" d="M293.417,509.738c-2.316.308-4.647.593-6.971.864C288.768,510.331,291.1,510.046,293.417,509.738Zm0,0" transform="translate(-245.375 -464.09)" fill="#4a3288"/>
      <path id="Trazado_732" data-name="Trazado 732" d="M311.886,506.41c-1.735.361-3.478.736-5.222,1.082C308.408,507.146,310.149,506.778,311.886,506.41Zm0,0" transform="translate(-262.776 -466.726)" fill="#4a3288"/>
      <path id="Trazado_733" data-name="Trazado 733" d="M328.694,502.113c-1.4.4-2.806.773-4.21,1.163C325.889,502.886,327.292,502.511,328.694,502.113Zm0,0" transform="translate(-278.329 -470.318)" fill="#4a3288"/>
      <path id="Trazado_734" data-name="Trazado 734" d="M323.645,503.543c-1.524.4-3.056.8-4.588,1.186Q321.356,504.154,323.645,503.543Zm0,0" transform="translate(-273.643 -469.124)" fill="#4a3288"/>
      <path id="Trazado_735" data-name="Trazado 735" d="M316.94,505.254c-1.615.375-3.244.721-4.874,1.082C313.7,505.982,315.327,505.629,316.94,505.254Zm0,0" transform="translate(-267.475 -467.692)" fill="#4a3288"/>
      <path id="Trazado_736" data-name="Trazado 736" d="M281.3,511.09q-3.9.326-7.817.586Q277.4,511.416,281.3,511.09Zm0,0" transform="translate(-234.008 -462.846)" fill="#4a3288"/>
      <path id="Trazado_737" data-name="Trazado 737" d="M50.077,25A25.039,25.039,0,1,0,25.039,50h.44V30.529H20.1V24.271h5.379V19.655c0-5.345,3.265-8.248,8.038-8.248a44.346,44.346,0,0,1,4.823.247v5.588H35.054c-2.59,0-3.108,1.233-3.108,3.04v3.986h6.208l-.81,6.259h-5.4v18.5A25.016,25.016,0,0,0,50.077,25Zm0,0" transform="translate(0 0)" fill="#4a3288"/>
      <path id="Trazado_738" data-name="Trazado 738" d="M280.388,511.43q-7.718.5-15.5.766Q272.665,511.937,280.388,511.43Zm0,0" transform="translate(-230.026 -462.531)" fill="#4a3288"/>
      <path id="Trazado_739" data-name="Trazado 739" d="M268.713,511.836q-4.1.135-8.209.2Q264.611,511.971,268.713,511.836Zm0,0" transform="translate(-222.366 -462.159)" fill="#4a3288"/>
    </g>
  </g>
</svg>
