<svg id="instagram" xmlns="http://www.w3.org/2000/svg" width="50.647" height="50.647" viewBox="0 0 50.647 50.647">
  <path id="Trazado_12773" data-name="Trazado 12773" d="M216.694,211.847A4.847,4.847,0,1,1,211.847,207,4.847,4.847,0,0,1,216.694,211.847Zm0,0" transform="translate(-186.524 -186.524)" fill="#4a3288"/>
  <path id="Trazado_12774" data-name="Trazado 12774" d="M158.742,138.834a4.815,4.815,0,0,0-2.76-2.76,8.045,8.045,0,0,0-2.7-.5c-1.534-.07-1.993-.085-5.876-.085s-4.343.015-5.876.085a8.05,8.05,0,0,0-2.7.5,4.817,4.817,0,0,0-2.76,2.76,8.048,8.048,0,0,0-.5,2.7c-.07,1.533-.085,1.993-.085,5.876s.015,4.342.085,5.876a8.045,8.045,0,0,0,.5,2.7,4.815,4.815,0,0,0,2.76,2.76,8.035,8.035,0,0,0,2.7.5c1.533.07,1.993.085,5.876.085s4.343-.015,5.876-.085a8.035,8.035,0,0,0,2.7-.5,4.815,4.815,0,0,0,2.76-2.76,8.052,8.052,0,0,0,.5-2.7c.07-1.534.085-1.993.085-5.876s-.015-4.343-.085-5.876A8.035,8.035,0,0,0,158.742,138.834Zm-11.336,16.043a7.467,7.467,0,1,1,7.467-7.467A7.467,7.467,0,0,1,147.406,154.877Zm7.762-13.484a1.745,1.745,0,1,1,1.745-1.745A1.745,1.745,0,0,1,155.168,141.393Zm0,0" transform="translate(-122.083 -122.086)" fill="#4a3288"/>
  <path id="Trazado_12775" data-name="Trazado 12775" d="M25.323,0A25.323,25.323,0,1,0,50.647,25.323,25.326,25.326,0,0,0,25.323,0ZM39.777,31.319a10.669,10.669,0,0,1-.676,3.53A7.435,7.435,0,0,1,34.848,39.1a10.676,10.676,0,0,1-3.529.676c-1.551.071-2.046.088-6,.088s-4.444-.017-6-.088A10.676,10.676,0,0,1,15.8,39.1a7.435,7.435,0,0,1-4.253-4.253,10.666,10.666,0,0,1-.676-3.529c-.071-1.551-.088-2.046-.088-6s.017-4.444.088-6a10.67,10.67,0,0,1,.675-3.53A7.44,7.44,0,0,1,15.8,11.546a10.678,10.678,0,0,1,3.53-.676c1.551-.071,2.046-.088,6-.088s4.444.017,6,.088a10.681,10.681,0,0,1,3.53.675A7.437,7.437,0,0,1,39.1,15.8a10.668,10.668,0,0,1,.676,3.53c.071,1.551.087,2.046.087,6S39.848,29.768,39.777,31.319Zm0,0" fill="#4a3288"/>
</svg>
