<svg xmlns="http://www.w3.org/2000/svg" width="50" height="50" viewBox="0 0 50 50">
  <path id="Trazado_12777" data-name="Trazado 12777" d="M25,0A25,25,0,1,0,50,25,25,25,0,0,0,25,0ZM17.735,37.792H11.646V19.468h6.089ZM14.691,16.974H14.66a3.173,3.173,0,1,1,.072-6.328,3.175,3.175,0,1,1-.04,6.33Zm25,20.818H33.6v-9.8c0-2.462-.873-4.143-3.084-4.143a3.333,3.333,0,0,0-3.124,2.227,4.169,4.169,0,0,0-.2,1.485V37.791H21.1s.08-16.6,0-18.325h6.089v2.593a6.044,6.044,0,0,1,5.487-3.023c4.014,0,7.009,2.618,7.009,8.244Zm0,0" fill="#4a3288"/>
</svg>
